<svg width="22" height="22" viewBox="0 0 22 22" fill="none" xmlns="http://www.w3.org/2000/svg">
<path d="M14.3692 4.00388V7.61205L15.258 7.2429V3.44828C15.258 3.25794 15.1478 3.09042 14.979 3.02201L7.79989 0.0343182C7.75219 0.0153532 7.70448 0.00383843 7.64937 0H7.64567H7.61256H7.60885C7.55745 0.0038382 7.50604 0.0115147 7.45834 0.0343182L0.279256 3.02201C0.110441 3.09426 0.000217829 3.26178 0.000217829 3.44828L0 21.5353C0 21.6913 0.0734081 21.8322 0.198225 21.916L5.25838 21.9921H7.63421C7.87666 21.9882 8.07487 21.7866 8.07487 21.5315V1.66711C8.07487 1.54903 8.12999 1.43885 8.22539 1.37405C8.3208 1.30926 8.44213 1.29413 8.54844 1.33974L14.1522 3.67291C14.2844 3.72619 14.3689 3.8594 14.3689 4.00413L14.3692 4.00388ZM21.8015 8.97102L17.4942 7.18219C17.461 7.17068 17.4281 7.15939 17.3913 7.15939H17.3619C17.3251 7.15939 17.2885 7.17091 17.2554 7.18219L12.9481 8.97102C12.8307 9.02046 12.7498 9.13854 12.7498 9.27175V21.6685C12.7498 21.8511 12.893 21.9959 13.0657 21.9959H17.3768C17.5493 21.992 17.6889 21.8475 17.6889 21.6685L17.6887 8.488C17.6887 8.36991 17.7438 8.25973 17.8392 8.19494C17.898 8.15317 17.964 8.13398 18.0337 8.13398C18.0777 8.13398 18.122 8.14549 18.1623 8.16062L21.1513 9.40532C21.2836 9.4586 21.3681 9.58798 21.3681 9.73654V21.6726C21.3681 21.8553 21.5112 22 21.6839 22C21.8602 22 21.9998 21.8517 21.9998 21.6726L22 9.27183C22 9.13862 21.9229 9.02077 21.8016 8.97133L21.8015 8.97102Z" fill="#05060B"/>
</svg>
